<?xml version="1.0" encoding="iso-8859-1"?>
<!-- Uploaded to: SVG Repo, www.svgrepo.com, Generator: SVG Repo Mixer Tools -->
<svg height="800px" width="800px" version="1.1" id="Layer_1" xmlns="http://www.w3.org/2000/svg" xmlns:xlink="http://www.w3.org/1999/xlink" 
	 viewBox="0 0 512 512" xml:space="preserve">
<path style="fill:#D7DEED;" d="M394.847,442.576H186.576c-14.378,0-26.034-11.656-26.034-26.034V26.034
	C160.542,11.656,172.198,0,186.576,0h208.271c14.378,0,26.034,11.656,26.034,26.034v390.508
	C420.881,430.921,409.226,442.576,394.847,442.576z"/>
<path style="fill:#FF6464;" d="M394.847,17.356H186.576c-4.792,0-8.678,3.886-8.678,8.678v390.508c0,4.792,3.886,8.678,8.678,8.678
	h208.271c4.792,0,8.678-3.886,8.678-8.678V26.034C403.525,21.24,399.64,17.356,394.847,17.356z M229.966,373.153V69.424h121.492
	v303.729H229.966z M351.458,390.508v17.356H229.966v-17.356H351.458z M195.254,69.424h17.356v303.729h-17.356V69.424z
	 M229.966,52.068V34.712h121.492v17.356H229.966z M368.814,69.424h17.356v303.729h-17.356V69.424z M386.169,52.068h-17.356V34.712
	h17.356V52.068z M212.61,34.712v17.356h-17.356V34.712H212.61z M195.254,390.508h17.356v17.356h-17.356V390.508z M368.814,407.864
	v-17.356h17.356v17.356H368.814z"/>
<path style="fill:#EFF2FA;" d="M325.424,512H117.153c-14.378,0-26.034-11.656-26.034-26.034V95.458
	c0-14.378,11.656-26.034,26.034-26.034h208.271c14.378,0,26.034,11.656,26.034,26.034v390.508
	C351.458,500.344,339.802,512,325.424,512z"/>
<g>
	<path style="fill:#FF6464;" d="M169.22,280.38c0-15.861,12.784-28.719,28.554-28.719c7.816,0,14.892,3.163,20.046,8.283
		c1.911,1.898,5.026,1.898,6.936,0c5.154-5.119,12.23-8.283,20.046-8.283c15.77,0,28.554,12.857,28.554,28.719l0,0
		c0,29.661-38.194,56.644-49.157,63.779c-1.772,1.153-4.047,1.153-5.82,0C207.414,337.024,169.22,310.041,169.22,280.38"/>
	<path style="fill:#FF6464;" d="M114.01,191.772c0-9.298,7.493-16.835,16.738-16.835c4.582,0,8.73,1.855,11.751,4.855
		c1.121,1.113,2.946,1.113,4.066,0c3.021-3.001,7.169-4.855,11.751-4.855c9.244,0,16.738,7.538,16.738,16.835l0,0
		c0,17.387-22.39,33.205-28.816,37.388c-1.039,0.676-2.372,0.676-3.412,0C136.4,224.977,114.01,209.16,114.01,191.772"/>
	<path style="fill:#FF6464;" d="M175.401,149.942l-22.892-53.415l-0.007,0.003c-0.847-1.976-2.418-3.647-4.551-4.561
		c-4.407-1.889-9.507,0.153-11.394,4.558l-22.891,53.415c-1.889,4.405,0.153,9.507,4.558,11.394
		c1.115,0.477,2.274,0.704,3.414,0.704c3.367,0,6.57-1.971,7.98-5.262l3.469-8.094h22.894l3.469,8.094
		c1.41,3.291,4.613,5.262,7.98,5.262c1.14,0,2.3-0.226,3.414-0.704C175.248,159.449,177.289,154.347,175.401,149.942z
		 M140.524,131.329l4.008-9.354l4.009,9.354H140.524z"/>
	<path style="fill:#FF6464;" d="M327.668,389.652c0,9.298-7.493,16.835-16.738,16.835c-4.582,0-8.73-1.855-11.751-4.855
		c-1.121-1.113-2.946-1.113-4.066,0c-3.021,3.001-7.169,4.855-11.751,4.855c-9.244,0-16.738-7.537-16.738-16.835l0,0
		c0-17.387,22.39-33.205,28.816-37.388c1.039-0.676,2.372-0.676,3.411,0C305.278,356.446,327.668,372.264,327.668,389.652"/>
	<path style="fill:#FF6464;" d="M323.456,420.086c-4.407-1.89-9.508,0.153-11.394,4.558l-3.469,8.094h-22.894l-3.469-8.094
		c-1.887-4.405-6.988-6.446-11.394-4.558c-4.405,1.889-6.446,6.99-4.558,11.395l22.892,53.414c1.41,3.291,4.613,5.262,7.98,5.262
		c1.14,0,2.3-0.226,3.414-0.704c2.133-0.914,3.704-2.584,4.551-4.561l0.007,0.003l22.892-53.414
		C329.902,427.076,327.861,421.975,323.456,420.086z M301.154,450.095l-4.008,9.354l-4.008-9.354H301.154z"/>
</g>
</svg>